# xmcd
#
# Track frame offsets:
# 150
# 22655
# 44949
# 66287
# 87656
# 114852
# 135513
# 153376
# 177554
# 198930
# 218628
# 238994
# 259847
# 279845
# 305144
# 320093
#
# Disc length: 4492 seconds
#
#
# Revision: 0
# Processed by: cddbd v1.5.2PL0 Copyright (c) Steve Scherf et al.
# Submitted via: FreeRIP 2.96 
#
DISCID=ed118a10
DTITLE=Eschbach, Andreas - Der Letzte Seiner Art CD3v5
DYEAR=2004
DGENRE=Hörbuch
TTITLE0=31 Der Letzte seiner Art
TTITLE1=32 Der Letzte seiner Art
TTITLE2=33 Der Letzte seiner Art
TTITLE3=34 Der Letzte seiner Art
TTITLE4=35 Der Letzte seiner Art
TTITLE5=36 Der Letzte seiner Art
TTITLE6=37 Der Letzte seiner Art
TTITLE7=38 Der Letzte seiner Art
TTITLE8=39 Der Letzte seiner Art
TTITLE9=40 Der Letzte seiner Art
TTITLE10=41 Der Letzte seiner Art
TTITLE11=42 Der Letzte seiner Art
TTITLE12=43 Der Letzte seiner Art
TTITLE13=44 Der Letzte seiner Art
TTITLE14=45 Der Letzte seiner Art
TTITLE15=46 Der Letzte seiner Art
EXTD=gelesen von Martin May
EXTT0=
EXTT1=
EXTT2=
EXTT3=
EXTT4=
EXTT5=
EXTT6=
EXTT7=
EXTT8=
EXTT9=
EXTT10=
EXTT11=
EXTT12=
EXTT13=
EXTT14=
EXTT15=
PLAYORDER=
